<svg height="512" viewBox="0 0 512 512" width="512" xmlns="http://www.w3.org/2000/svg">
<path fill="white" d="M493.278 154.515l-22.625 22.64L334.87 41.39l22.626-22.64c25-25 65.53-25 90.53 
0l45.25 45.265c24.97 24.985 24.97 65.5.002 90.5zM176.465 426.03c-6.25 6.25-6.25 16.376 
0 22.626 6.25 6.28 16.375 6.28 22.625 0L448.028 199.78l-22.656-22.64-248.907 248.89zM63.31 
312.907c-6.25 6.25-6.25 16.375 0 22.625s16.374 6.25 22.624 0L334.87 86.64l-22.624-22.625L63.31 
312.905zM357.464 109.25L108.56 358.156c-12.5 12.47-12.47 32.75 0 45.25 12.5 12.5 32.75 12.563
 45.28-.03l248.906-248.86-45.28-45.266zM153.778 471.22c-7.656-7.657-11.344-17.376-12.72-27.376-3.25.5-6.53.97-9.874.97-17.094 
 0-33.156-6.69-45.25-18.782-12.094-12.125-18.75-28.156-18.75-45.25 
 0-3.125.47-6.156.906-9.188-10.344-1.406-19.906-5.938-27.406-13.438-.72-.72-.97-1.688-1.625-2.47L-.005 
 512l155.906-39.03c-.687-.626-1.468-1.095-2.124-1.75z"/></svg>